<svg width="100" height="100" viewBox="0 0 100 100" fill="none" xmlns="http://www.w3.org/2000/svg">
<rect width="100" height="100" rx="22" fill="#0C6AD3"/>
<g clip-path="url(#clip0_17_111)">
<path fill-rule="evenodd" clip-rule="evenodd" d="M20 20H23.75V76.25H80V80H20V20ZM57.5 33.125C57.5 32.6277 57.6975 32.1508 58.0492 31.7992C58.4008 31.4475 58.8777 31.25 59.375 31.25H74.375C74.8723 31.25 75.3492 31.4475 75.7008 31.7992C76.0525 32.1508 76.25 32.6277 76.25 33.125V48.125C76.25 48.6223 76.0525 49.0992 75.7008 49.4508C75.3492 49.8025 74.8723 50 74.375 50C73.8777 50 73.4008 49.8025 73.0492 49.4508C72.6975 49.0992 72.5 48.6223 72.5 48.125V38.375L58.9513 54.9388C58.7854 55.1412 58.579 55.3067 58.3453 55.4245C58.1116 55.5424 57.8559 55.6101 57.5945 55.6231C57.3331 55.6362 57.0719 55.5944 56.8276 55.5004C56.5834 55.4065 56.3615 55.2624 56.1763 55.0775L46.475 45.3763L32.765 64.2275C32.4651 64.6089 32.029 64.8591 31.5484 64.9257C31.0679 64.9923 30.5802 64.87 30.1879 64.5845C29.7956 64.299 29.5292 63.8726 29.4448 63.3948C29.3603 62.9171 29.4644 62.4252 29.735 62.0225L44.735 41.3975C44.8942 41.1782 45.0991 40.996 45.3355 40.8635C45.5719 40.7309 45.8342 40.6512 46.1044 40.6298C46.3746 40.6085 46.6462 40.6459 46.9005 40.7396C47.1548 40.8333 47.3858 40.981 47.5775 41.1725L57.3613 50.96L70.4187 35H59.375C58.8777 35 58.4008 34.8025 58.0492 34.4508C57.6975 34.0992 57.5 33.6223 57.5 33.125Z" fill="white"/>
</g>
<defs>
<clipPath id="clip0_17_111">
<rect width="60" height="60" fill="white" transform="translate(20 20)"/>
</clipPath>
</defs>
</svg>
