<svg width="226" height="226" viewBox="0 0 226 226" fill="none" xmlns="http://www.w3.org/2000/svg">
    <path d="M224.624 109.671C223.7 108.754 222.5 108.292 221.293 108.292H206.885C204.506 60.1059 165.882 21.455 117.706 19.0379V4.70941C117.706 3.50569 117.251 2.29889 116.33 1.38165C114.492 -0.459898 111.51 -0.459898 109.672 1.38165C108.755 2.29889 108.292 3.50569 108.292 4.70941V19.0308C60.041 21.369 21.3283 60.0507 18.9487 108.292H4.70627C3.50256 108.292 2.29929 108.754 1.37851 109.671C-0.459504 111.513 -0.459504 114.492 1.37851 116.33C2.29929 117.251 3.50609 117.71 4.71334 117.71H18.9487C21.3283 165.951 60.041 204.636 108.292 206.967V221.292C108.292 222.499 108.755 223.699 109.672 224.624C111.51 226.458 114.492 226.458 116.33 224.624C117.251 223.699 117.706 222.5 117.706 221.292V206.967C165.882 204.547 204.506 165.896 206.885 117.71H221.286C222.5 117.71 223.7 117.251 224.624 116.33C226.459 114.492 226.459 111.509 224.624 109.671ZM97.4952 196.263C91.4912 195.159 85.6288 193.415 79.963 191.021C71.9174 187.614 64.5309 183.034 57.9165 177.372C58.4475 175.475 59.8512 173.917 61.7514 173.234L61.9306 173.179C69.2827 171.185 74.7416 169.254 78.0349 167.992C87.639 164.288 93.4704 160.723 96.4773 156.647L101.254 169.323L97.4952 196.263ZM86.0151 107.344C88.0221 107.585 90.1811 107.734 92.4879 107.734C99.7472 107.734 108.393 106.296 117.803 101.868C123.948 98.9744 127.686 97.7711 130.217 97.7711C134.301 97.7711 135.252 100.902 138.08 105.147C138.549 105.851 139.204 106.52 139.963 107.147C140.163 108.765 140.273 110.441 140.273 112.161C140.273 120.727 136.314 130.28 129.417 138.37C123.251 145.598 116.354 149.502 113.003 149.502C109.644 149.502 102.754 145.598 96.5876 138.37C89.6871 130.28 85.7317 120.727 85.7317 112.161C85.7321 110.509 85.8253 108.902 86.0151 107.344ZM82.1011 97.0878C82.7182 95.3637 83.4355 93.4771 84.2358 91.5358C89.3879 79.0868 93.0846 76.5867 93.4916 76.3452C99.775 72.5483 106.506 70.6242 113.486 70.6242C122.341 70.6242 128.652 73.7489 130.321 75.2625C135.418 79.88 138.791 85.5874 140.384 92.2809C140.376 92.2773 140.376 92.2738 140.37 92.2703C137.577 89.67 134.163 88.3528 130.217 88.3528C126.086 88.3528 121.327 89.7975 113.792 93.346C106.785 96.6428 99.6161 98.3153 92.4879 98.3153C88.4291 98.3153 84.9045 97.7671 82.1011 97.0878ZM118.817 158.357L117.272 162.454H108.727L107.186 158.357H108.955C110.362 158.73 111.721 158.923 113.004 158.923C114.282 158.923 115.638 158.729 117.045 158.357H118.817ZM112.917 197.67C110.879 197.67 108.851 197.594 106.837 197.449L110.403 171.882H115.599L119.168 197.435C117.099 197.587 115.013 197.67 112.917 197.67ZM145.874 191.021C140.259 193.394 134.452 195.132 128.507 196.235L124.748 169.323L129.528 156.646C132.534 160.722 138.363 164.288 147.977 167.985C151.247 169.254 156.688 171.172 164.102 173.185L164.227 173.227C166.095 173.889 167.489 175.406 168.047 177.255C161.405 182.979 153.97 187.593 145.874 191.021ZM180.297 116.33C181.214 117.251 182.421 117.71 183.628 117.71H197.449C196.918 127.479 194.739 136.963 190.932 145.956C187.111 154.991 181.8 163.206 175.138 170.413C173.262 167.585 170.483 165.378 167.103 164.261L166.689 164.129C159.64 162.219 154.467 160.398 151.357 159.198C140.329 154.957 137.453 151.894 136.722 150.453C136.694 150.398 136.674 150.343 136.653 150.287L136.605 144.446C144.019 135.742 149.689 124.065 149.689 112.161C149.689 112.161 156.607 86.3559 136.64 68.2821C132.977 64.9644 124.273 61.2094 113.486 61.2094C105.883 61.2094 97.2511 63.0752 88.6229 68.2821C78.0636 74.6551 70.3734 102.808 70.3734 102.808C70.3734 102.808 72.6908 104.122 76.7809 105.392C76.4772 107.568 76.3121 109.823 76.3121 112.161C76.3121 124.065 81.9815 135.742 89.3958 144.452L89.3543 150.287C89.33 150.343 89.3093 150.398 89.2854 150.453C88.5474 151.895 85.6783 154.957 74.6502 159.205C71.5396 160.398 66.3637 162.219 59.3802 164.116L58.8973 164.261C55.4834 165.391 52.6695 167.64 50.7966 170.523C44.0859 163.282 38.744 155.04 34.9024 145.956C31.0953 136.963 28.9161 127.479 28.3846 117.71H42.3785C43.5787 117.71 44.7855 117.251 45.7028 116.33C47.5443 114.492 47.5443 111.509 45.7028 109.671C44.7855 108.751 43.5787 108.292 42.3715 108.292H28.3837C28.9148 98.5224 31.0944 89.0427 34.9016 80.0491C39.1638 69.9656 45.2675 60.9132 53.0473 53.1334C60.8271 45.3537 69.883 39.2464 79.963 34.9837C88.9809 31.1695 98.4919 28.9832 108.292 28.4593V42.3777C108.292 43.5814 108.755 44.7882 109.672 45.7055C111.51 47.5435 114.492 47.5435 116.33 45.7055C117.251 44.7882 117.706 43.5814 117.706 42.3777V28.4694C127.445 29.011 136.9 31.1903 145.874 34.9837C155.95 39.2459 165.006 45.3537 172.786 53.1334C180.566 60.9132 186.669 69.9656 190.932 80.0491C194.739 89.0427 196.918 98.5228 197.449 108.292H183.628C182.421 108.292 181.214 108.754 180.297 109.671C178.455 111.513 178.455 114.492 180.297 116.33Z" fill="white"/>
</svg>
