<svg width="50" height="50" viewBox="0 0 50 50" fill="none" xmlns="http://www.w3.org/2000/svg">
<rect width="50" height="50" rx="13" fill="white"/>
<g clip-path="url(#clip0_33_186)">
<path d="M25 11C21.2008 11 20.723 11.0175 19.2303 11.084C17.7375 11.154 16.7207 11.3885 15.83 11.735C14.8957 12.0864 14.0494 12.6377 13.3503 13.3503C12.6381 14.0497 12.0869 14.8959 11.735 15.83C11.3885 16.719 11.1523 17.7375 11.084 19.225C11.0175 20.7212 11 21.1973 11 25.0018C11 28.8027 11.0175 29.2788 11.084 30.7715C11.154 32.2625 11.3885 33.2792 11.735 34.17C12.0938 35.0905 12.5715 35.871 13.3503 36.6497C14.1273 37.4285 14.9078 37.908 15.8282 38.265C16.7207 38.6115 17.7358 38.8477 19.2268 38.916C20.7213 38.9825 21.1972 39 25 39C28.8027 39 29.277 38.9825 30.7715 38.916C32.2607 38.846 33.281 38.6115 34.1718 38.265C35.1055 37.9134 35.9512 37.3621 36.6497 36.6497C37.4285 35.871 37.9062 35.0905 38.265 34.17C38.6098 33.2792 38.846 32.2625 38.916 30.7715C38.9825 29.2788 39 28.8027 39 25C39 21.1972 38.9825 20.7213 38.916 19.2268C38.846 17.7375 38.6098 16.719 38.265 15.83C37.9131 14.8959 37.3619 14.0497 36.6497 13.3503C35.9509 12.6374 35.1045 12.0861 34.17 11.735C33.2775 11.3885 32.259 11.1523 30.7698 11.084C29.2752 11.0175 28.801 11 24.9965 11H25.0018H25ZM23.7452 13.5235H25.0018C28.7397 13.5235 29.1825 13.5358 30.6577 13.604C32.0227 13.6653 32.7647 13.8945 33.2582 14.0852C33.911 14.339 34.3783 14.6435 34.8682 15.1335C35.3582 15.6235 35.661 16.089 35.9148 16.7435C36.1073 17.2352 36.3347 17.9773 36.396 19.3423C36.4643 20.8175 36.4783 21.2603 36.4783 24.9965C36.4783 28.7327 36.4643 29.1772 36.396 30.6525C36.3347 32.0175 36.1055 32.7577 35.9148 33.2513C35.6903 33.8591 35.332 34.4088 34.8665 34.8595C34.3765 35.3495 33.911 35.6523 33.2565 35.906C32.7665 36.0985 32.0245 36.326 30.6577 36.389C29.1825 36.4555 28.7397 36.4713 25.0018 36.4713C21.2638 36.4713 20.8193 36.4555 19.344 36.389C17.979 36.326 17.2387 36.0985 16.7452 35.906C16.1371 35.6819 15.587 35.3243 15.1353 34.8595C14.6693 34.4081 14.3105 33.8579 14.0852 33.2495C13.8945 32.7577 13.6653 32.0158 13.604 30.6507C13.5375 29.1755 13.5235 28.7327 13.5235 24.993C13.5235 21.255 13.5375 20.814 13.604 19.3387C13.667 17.9737 13.8945 17.2318 14.087 16.7383C14.3407 16.0855 14.6452 15.6182 15.1353 15.1283C15.6252 14.6382 16.0907 14.3355 16.7452 14.0818C17.2387 13.8893 17.979 13.6618 19.344 13.5988C20.6355 13.5393 21.136 13.5218 23.7452 13.52V13.5235ZM32.4743 15.8475C32.2536 15.8475 32.0352 15.891 31.8313 15.9754C31.6275 16.0598 31.4423 16.1836 31.2863 16.3396C31.1303 16.4956 31.0066 16.6808 30.9221 16.8846C30.8377 17.0884 30.7943 17.3069 30.7943 17.5275C30.7943 17.7481 30.8377 17.9666 30.9221 18.1704C31.0066 18.3742 31.1303 18.5594 31.2863 18.7154C31.4423 18.8714 31.6275 18.9952 31.8313 19.0796C32.0352 19.164 32.2536 19.2075 32.4743 19.2075C32.9198 19.2075 33.3471 19.0305 33.6622 18.7154C33.9773 18.4004 34.1542 17.9731 34.1542 17.5275C34.1542 17.0819 33.9773 16.6546 33.6622 16.3396C33.3471 16.0245 32.9198 15.8475 32.4743 15.8475ZM25.0018 17.811C24.0481 17.7961 23.1011 17.9711 22.2157 18.3257C21.3304 18.6804 20.5244 19.2076 19.8448 19.8767C19.1651 20.5459 18.6254 21.3435 18.257 22.2232C17.8886 23.1029 17.6988 24.0471 17.6988 25.0009C17.6988 25.9546 17.8886 26.8988 18.257 27.7785C18.6254 28.6583 19.1651 29.4559 19.8448 30.125C20.5244 30.7941 21.3304 31.3214 22.2157 31.676C23.1011 32.0306 24.0481 32.2056 25.0018 32.1908C26.8892 32.1613 28.6894 31.3908 30.0137 30.0457C31.338 28.7005 32.0803 26.8886 32.0803 25.0009C32.0803 23.1132 31.338 21.3012 30.0137 19.9561C28.6894 18.6109 26.8892 17.8404 25.0018 17.811ZM25.0018 20.3328C26.2396 20.3328 27.4267 20.8245 28.302 21.6998C29.1773 22.575 29.669 23.7622 29.669 25C29.669 26.2378 29.1773 27.425 28.302 28.3002C27.4267 29.1755 26.2396 29.6672 25.0018 29.6672C23.7639 29.6672 22.5768 29.1755 21.7015 28.3002C20.8262 27.425 20.3345 26.2378 20.3345 25C20.3345 23.7622 20.8262 22.575 21.7015 21.6998C22.5768 20.8245 23.7639 20.3328 25.0018 20.3328Z" fill="#2B3035"/>
</g>
<defs>
<clipPath id="clip0_33_186">
<rect width="28" height="28" fill="white" transform="translate(11 11)"/>
</clipPath>
</defs>
</svg>
