<svg width="100" height="100" viewBox="0 0 100 100" fill="none" xmlns="http://www.w3.org/2000/svg">
<rect x="19" y="41" width="76" height="47" fill="#D9D9D9"/>
<path d="M89.2857 6.25024H10.7143C4.79911 6.25024 0 10.4495 0 15.6252V84.3753C0 89.551 4.79911 93.7503 10.7143 93.7503H89.2857C95.2009 93.7503 100 89.551 100 84.3753V15.6252C100 10.4495 95.2009 6.25024 89.2857 6.25024ZM54.4196 74.4924C54.4196 83.0081 48.7054 86.8948 40.3795 86.8948C32.8571 86.8948 28.5045 83.4963 26.2723 79.3753L33.9286 75.3323C35.4018 77.6174 36.7411 79.551 39.9777 79.551C43.058 79.551 45.0223 78.4963 45.0223 74.3753V46.426H54.4196V74.4924ZM76.6518 86.8948C67.9241 86.8948 62.2768 83.262 59.5312 78.4963L67.1875 74.6292C69.1964 77.5003 71.8304 79.6292 76.4509 79.6292C80.3348 79.6292 82.8348 77.9299 82.8348 75.5667C82.8348 72.7542 80.2902 71.7581 75.9821 70.0979L73.6384 69.219C66.8527 66.6995 62.3661 63.5159 62.3661 56.8167C62.3661 50.6448 67.7455 45.9573 76.1161 45.9573C82.0982 45.9573 86.3839 47.7737 89.4643 52.5393L82.1429 56.6409C80.5357 54.1213 78.7946 53.1252 76.0937 53.1252C73.3482 53.1252 71.6071 54.6487 71.6071 56.6409C71.6071 59.1018 73.3482 60.0979 77.3884 61.6409L79.7321 62.5198C87.7232 65.5081 92.2098 68.5745 92.2098 75.4495C92.2098 82.8323 85.558 86.8948 76.6518 86.8948Z" fill="#0C6AD3"/>
</svg>
