<svg width="218" height="65" viewBox="0 0 218 65" fill="none" xmlns="http://www.w3.org/2000/svg">
<g clip-path="url(#clip0_14_49)">
<path d="M65.0647 31.5426C64.797 31.2788 64.4495 31.1459 64.0998 31.1459H59.9264C59.2372 17.2871 48.0495 6.17069 34.0948 5.47549V1.35447C34.0948 1.00827 33.963 0.661178 33.6963 0.39737C33.1639 -0.132279 32.3 -0.132279 31.7676 0.39737C31.5019 0.661178 31.368 1.00827 31.368 1.35447V5.47346C17.3915 6.14593 6.17797 17.2712 5.48868 31.1459H1.36322C1.01455 31.1459 0.666012 31.2788 0.3993 31.5426C-0.1331 32.0723 -0.1331 32.9292 0.3993 33.4579C0.666012 33.7227 1.01558 33.8546 1.36527 33.8546H5.48868C6.17797 47.7292 17.3915 58.8556 31.368 59.526V63.646C31.368 63.9931 31.5019 64.3383 31.7676 64.6042C32.3 65.1318 33.1639 65.1318 33.6963 64.6042C33.963 64.3383 34.0948 63.9933 34.0948 63.646V59.526C48.0495 58.8298 59.2372 47.7133 59.9264 33.8546H64.0977C64.4493 33.8546 64.797 33.7227 65.0646 33.4579C65.5961 32.9292 65.5961 32.0713 65.0647 31.5426ZM28.2405 56.4473C26.5014 56.1299 24.8033 55.6281 23.1621 54.9397C20.8316 53.9598 18.6921 52.6426 16.7761 51.0141C16.9299 50.4686 17.3365 50.0203 17.8869 49.8239L17.9388 49.808C20.0684 49.2347 21.6497 48.6793 22.6036 48.3163C25.3855 47.2511 27.0747 46.2255 27.9456 45.0533L29.3293 48.6992L28.2405 56.4473ZM24.9152 30.8732C25.4965 30.9427 26.1219 30.9853 26.7901 30.9853C28.8928 30.9853 31.397 30.5717 34.1228 29.2982C35.9029 28.4661 36.9857 28.12 37.7189 28.12C38.9015 28.12 39.1772 29.0206 39.9963 30.2415C40.132 30.4439 40.3219 30.6362 40.5417 30.8167C40.5996 31.2819 40.6316 31.7639 40.6316 32.2588C40.6316 34.7224 39.4848 37.4698 37.487 39.7966C35.701 41.8755 33.7032 42.9983 32.7324 42.9983C31.7595 42.9983 29.7637 41.8755 27.9776 39.7966C25.9788 37.4698 24.8331 34.7224 24.8331 32.2588C24.8332 31.7836 24.8602 31.3215 24.9152 30.8732ZM23.7814 27.9235C23.9602 27.4276 24.168 26.885 24.3998 26.3267C25.8921 22.7462 26.9629 22.0271 27.0808 21.9577C28.9009 20.8656 30.8507 20.3122 32.8723 20.3122C35.4374 20.3122 37.2653 21.211 37.7489 21.6463C39.2253 22.9743 40.2022 24.6158 40.6637 26.541C40.6615 26.5399 40.6615 26.5389 40.6596 26.5379C39.8505 25.79 38.8616 25.4112 37.7189 25.4112C36.5222 25.4112 35.1437 25.8267 32.9611 26.8473C30.9315 27.7955 28.8548 28.2765 26.7901 28.2765C25.6144 28.2765 24.5935 28.1189 23.7814 27.9235ZM34.4165 45.5452L33.969 46.7234H31.494L31.0475 45.5452H31.5599C31.9675 45.6523 32.3611 45.7078 32.7326 45.7078C33.1031 45.7078 33.4957 45.6522 33.9032 45.5452H34.4165ZM32.7075 56.8519C32.1171 56.8519 31.5298 56.8301 30.9465 56.7884L31.9793 49.435H33.4845L34.5183 56.7845C33.9189 56.8282 33.3147 56.8519 32.7075 56.8519ZM42.2538 54.9397C40.6276 55.6221 38.9455 56.1219 37.2234 56.4393L36.1346 48.6991L37.519 45.0531C38.39 46.2254 40.0782 47.2509 42.8632 48.3143C43.8101 48.6793 45.3864 49.2308 47.534 49.8099L47.5699 49.8219C48.1113 50.0123 48.5149 50.4488 48.6767 50.9803C46.7528 52.6268 44.5991 53.9538 42.2538 54.9397ZM52.2248 33.4579C52.4905 33.7227 52.8401 33.8546 53.1898 33.8546H57.1933C57.0395 36.6644 56.4082 39.3919 55.3054 41.9786C54.1987 44.5772 52.6603 46.9396 50.7306 49.0125C50.1872 48.1993 49.382 47.5645 48.4032 47.2431L48.2832 47.2054C46.2415 46.6559 44.7431 46.1322 43.8422 45.787C40.6477 44.5672 39.8146 43.6864 39.6028 43.2718C39.5949 43.256 39.5889 43.2401 39.5829 43.2242L39.569 41.5441C41.7167 39.0408 43.3589 35.6825 43.3589 32.2587C43.3589 32.2587 45.3627 24.8369 39.5791 19.6386C38.5182 18.6845 35.997 17.6045 32.8725 17.6045C30.67 17.6045 28.1698 18.1411 25.6705 19.6386C22.6119 21.4716 20.3844 29.5688 20.3844 29.5688C20.3844 29.5688 21.0556 29.9467 22.2404 30.3117C22.1524 30.9376 22.1046 31.5862 22.1046 32.2587C22.1046 35.6825 23.7468 39.0408 25.8944 41.546L25.8824 43.2242C25.8754 43.2401 25.8694 43.256 25.8625 43.2718C25.6487 43.6865 24.8176 44.5671 21.6232 45.7891C20.7222 46.1322 19.2229 46.6559 17.2001 47.2014L17.0602 47.2431C16.0714 47.5683 15.2563 48.215 14.7138 49.0443C12.7699 46.9615 11.2226 44.591 10.1099 41.9786C9.00708 39.3919 8.37584 36.6644 8.2219 33.8546H12.2754C12.623 33.8546 12.9726 33.7227 13.2383 33.4579C13.7717 32.9292 13.7717 32.0713 13.2383 31.5426C12.9726 31.2778 12.623 31.1459 12.2733 31.1459H8.22165C8.37546 28.3361 9.00682 25.6096 10.1096 23.023C11.3442 20.1228 13.1122 17.5193 15.3657 15.2817C17.6192 13.0442 20.2423 11.2877 23.1621 10.0617C25.7742 8.96467 28.5292 8.33587 31.368 8.18518V12.1883C31.368 12.5345 31.5019 12.8816 31.7676 13.1454C32.3 13.674 33.1639 13.674 33.6963 13.1454C33.963 12.8816 34.0948 12.5345 34.0948 12.1883V8.1881C36.9156 8.34387 39.6546 8.97064 42.2538 10.0617C45.1726 11.2875 47.7957 13.0442 50.0492 15.2817C52.3027 17.5193 54.0707 20.1228 55.3053 23.023C56.4081 25.6096 57.0393 28.3362 57.1933 31.1459H53.1898C52.8402 31.1459 52.4905 31.2788 52.2248 31.5426C51.6914 32.0723 51.6914 32.9292 52.2248 33.4579Z" fill="white"/>
</g>
<path d="M92.5778 33.3789C92.5778 35.5878 92.1607 37.4377 91.3264 38.9287C90.4922 40.4196 89.2872 41.5425 87.7115 42.2972C86.1543 43.0519 84.2726 43.4292 82.0666 43.4292H76.5051V23.7152H82.6505C84.6712 23.7152 86.4231 24.0834 87.9061 24.8196C89.3892 25.5559 90.5386 26.6419 91.3543 28.0777C92.1699 29.495 92.5778 31.2621 92.5778 33.3789ZM89.4355 33.4618C89.4355 31.8051 89.1667 30.443 88.6291 29.3754C88.0915 28.3078 87.2944 27.5163 86.2377 27.0009C85.1996 26.4855 83.9389 26.2278 82.4559 26.2278H79.5083V40.9166H81.9275C84.4302 40.9166 86.3026 40.2908 87.5446 39.0391C88.8052 37.7874 89.4355 35.9283 89.4355 33.4618Z" fill="white"/>
<path d="M102.46 28.271C103.777 28.271 104.908 28.5471 105.853 29.0993C106.798 29.6331 107.521 30.4062 108.022 31.4186C108.541 32.431 108.801 33.6274 108.801 35.008V36.6094H98.7343C98.7714 38.1372 99.1699 39.306 99.93 40.1159C100.709 40.9258 101.793 41.3308 103.183 41.3308C104.147 41.3308 105 41.248 105.742 41.0823C106.502 40.8982 107.28 40.6313 108.078 40.2816V42.7113C107.336 43.0427 106.576 43.2912 105.797 43.4568C105.037 43.6225 104.129 43.7053 103.072 43.7053C101.626 43.7053 100.347 43.42 99.2348 42.8494C98.1225 42.2788 97.2512 41.432 96.6209 40.3092C96.0092 39.168 95.7033 37.769 95.7033 36.1124C95.7033 34.4373 95.9814 33.02 96.5375 31.8604C97.1122 30.7007 97.9001 29.8172 98.9011 29.2097C99.9207 28.5839 101.107 28.271 102.46 28.271ZM102.46 30.535C101.404 30.535 100.551 30.8756 99.9022 31.5566C99.2719 32.2377 98.9011 33.2041 98.7899 34.4558H105.853C105.853 33.6827 105.732 33.0016 105.491 32.4126C105.25 31.8235 104.88 31.3634 104.379 31.032C103.879 30.7007 103.239 30.535 102.46 30.535Z" fill="white"/>
<path d="M115.3 43.4292L109.627 28.5471H112.742L115.856 37.2444C115.986 37.6126 116.116 38.0267 116.246 38.4869C116.394 38.9471 116.524 39.3889 116.635 39.8122C116.746 40.2356 116.82 40.6037 116.857 40.9166H116.969C117.024 40.6037 117.108 40.2356 117.219 39.8122C117.349 39.3704 117.488 38.9287 117.636 38.4869C117.784 38.0267 117.914 37.6126 118.025 37.2444L121.14 28.5471H124.254L118.554 43.4292H115.3Z" fill="white"/>
<path d="M142.395 43.4292H139.392V34.4281H129.909V43.4292H126.906V23.7152H129.909V31.888H139.392V23.7152H142.395V43.4292Z" fill="white"/>
<path d="M160.276 28.5471V43.4292H157.913L157.495 41.4689H157.356C157.041 41.9842 156.633 42.4076 156.133 42.7389C155.632 43.0703 155.085 43.3096 154.492 43.4568C153.899 43.6225 153.287 43.7053 152.657 43.7053C151.489 43.7053 150.497 43.5212 149.682 43.1531C148.884 42.7666 148.273 42.1775 147.846 41.386C147.438 40.5761 147.235 39.5453 147.235 38.2936V28.5471H150.21V37.8519C150.21 39.0115 150.451 39.8766 150.933 40.4473C151.433 41.0179 152.203 41.3032 153.241 41.3032C154.279 41.3032 155.095 41.1007 155.688 40.6958C156.281 40.2908 156.698 39.7018 156.939 38.9287C157.199 38.1372 157.329 37.1892 157.329 36.0848V28.5471H160.276Z" fill="white"/>
<path d="M172.48 28.271C174.223 28.271 175.558 28.7035 176.485 29.5687C177.412 30.4338 177.875 31.8235 177.875 33.7379V43.4292H174.955V34.152C174.955 32.9924 174.705 32.1273 174.204 31.5566C173.722 30.9676 172.944 30.6731 171.869 30.6731C170.348 30.6731 169.292 31.1241 168.699 32.026C168.124 32.928 167.837 34.2257 167.837 35.9191V43.4292H164.889V28.5471H167.225L167.642 30.535H167.809C168.142 30.0196 168.55 29.5963 169.032 29.265C169.514 28.9336 170.052 28.6851 170.645 28.5195C171.238 28.3538 171.85 28.271 172.48 28.271Z" fill="white"/>
<path d="M187.799 41.3308C188.188 41.3308 188.587 41.294 188.995 41.2204C189.403 41.1467 189.755 41.0639 190.051 40.9719V43.1807C189.736 43.328 189.31 43.4476 188.772 43.5396C188.235 43.6501 187.697 43.7053 187.159 43.7053C186.344 43.7053 185.593 43.5673 184.907 43.2912C184.24 43.015 183.702 42.5365 183.294 41.8554C182.886 41.1743 182.682 40.2264 182.682 39.0115V30.7835H180.597V29.4582L182.794 28.3538L183.823 25.2062H185.63V28.5471H189.912V30.7835H185.63V38.9563C185.63 39.7662 185.825 40.3644 186.214 40.751C186.622 41.1375 187.15 41.3308 187.799 41.3308Z" fill="white"/>
<path d="M198.945 28.271C200.261 28.271 201.392 28.5471 202.337 29.0993C203.283 29.6331 204.005 30.4062 204.506 31.4186C205.025 32.431 205.285 33.6274 205.285 35.008V36.6094H195.218C195.255 38.1372 195.654 39.306 196.414 40.1159C197.193 40.9258 198.277 41.3308 199.668 41.3308C200.632 41.3308 201.484 41.248 202.226 41.0823C202.986 40.8982 203.765 40.6313 204.562 40.2816V42.7113C203.82 43.0427 203.06 43.2912 202.281 43.4568C201.521 43.6225 200.613 43.7053 199.556 43.7053C198.11 43.7053 196.831 43.42 195.719 42.8494C194.607 42.2788 193.735 41.432 193.105 40.3092C192.493 39.168 192.187 37.769 192.187 36.1124C192.187 34.4373 192.465 33.02 193.022 31.8604C193.596 30.7007 194.384 29.8172 195.385 29.2097C196.405 28.5839 197.591 28.271 198.945 28.271ZM198.945 30.535C197.888 30.535 197.035 30.8756 196.386 31.5566C195.756 32.2377 195.385 33.2041 195.274 34.4558H202.337C202.337 33.6827 202.217 33.0016 201.976 32.4126C201.735 31.8235 201.364 31.3634 200.863 31.032C200.363 30.7007 199.723 30.535 198.945 30.535Z" fill="white"/>
<path d="M216.359 28.271C216.619 28.271 216.906 28.2894 217.221 28.3262C217.537 28.3446 217.796 28.3722 218 28.409L217.694 31.1425C217.49 31.0873 217.249 31.0412 216.971 31.0044C216.693 30.9676 216.434 30.9492 216.193 30.9492C215.636 30.9492 215.099 31.0596 214.58 31.2805C214.079 31.483 213.625 31.7867 213.217 32.1917C212.809 32.5782 212.485 33.0568 212.244 33.6274C212.021 34.1981 211.91 34.8515 211.91 35.5878V43.4292H208.963V28.5471H211.298L211.688 31.1977H211.799C212.114 30.6639 212.494 30.1761 212.939 29.7343C213.384 29.2926 213.894 28.9428 214.468 28.6851C215.043 28.409 215.673 28.271 216.359 28.271Z" fill="white"/>
<defs>
<clipPath id="clip0_14_49">
<rect width="65.4632" height="65" fill="white"/>
</clipPath>
</defs>
</svg>
