<svg width="1735" height="489" viewBox="0 0 1735 489" fill="none" xmlns="http://www.w3.org/2000/svg">
<path d="M324.396 356.596C332.194 356.596 338.013 358.287 341.854 361.67C345.753 365.053 347.702 369.869 347.702 376.118C347.702 378.927 347.301 381.622 346.498 384.202C345.696 386.725 344.377 389.018 342.542 391.082C340.765 393.089 338.386 394.694 335.404 395.898C332.423 397.045 328.754 397.618 324.396 397.618H319.752V418H303.154V356.596H324.396ZM324.052 370.012H319.752V384.116H323.02C324.454 384.116 325.772 383.887 326.976 383.428C328.238 382.912 329.241 382.109 329.986 381.02C330.732 379.873 331.104 378.383 331.104 376.548C331.104 374.599 330.531 373.022 329.384 371.818C328.238 370.614 326.46 370.012 324.052 370.012ZM379.766 369.582C385.786 369.582 390.487 371.073 393.87 374.054C397.253 377.035 398.944 381.278 398.944 386.782V418H387.592L384.41 411.722H384.066C382.747 413.385 381.371 414.761 379.938 415.85C378.562 416.882 376.957 417.627 375.122 418.086C373.287 418.602 371.051 418.86 368.414 418.86C365.662 418.86 363.197 418.315 361.018 417.226C358.839 416.079 357.119 414.388 355.858 412.152C354.597 409.859 353.966 406.963 353.966 403.466C353.966 398.363 355.715 394.579 359.212 392.114C362.767 389.649 367.898 388.273 374.606 387.986L382.518 387.728V387.04C382.518 384.919 382.002 383.428 380.97 382.568C379.938 381.651 378.533 381.192 376.756 381.192C374.864 381.192 372.771 381.536 370.478 382.224C368.185 382.855 365.863 383.686 363.512 384.718L358.782 373.882C361.534 372.449 364.63 371.388 368.07 370.7C371.567 369.955 375.466 369.582 379.766 369.582ZM378.82 396.93C375.839 397.045 373.717 397.589 372.456 398.564C371.252 399.481 370.65 400.8 370.65 402.52C370.65 404.125 371.08 405.329 371.94 406.132C372.8 406.877 373.947 407.25 375.38 407.25C377.387 407.25 379.078 406.619 380.454 405.358C381.887 404.097 382.604 402.463 382.604 400.456V396.758L378.82 396.93ZM408.15 389.534C408.15 382.711 409.039 376.835 410.816 371.904C412.651 366.916 415.718 362.903 420.018 359.864C424.318 356.825 430.223 354.79 437.734 353.758C440.257 353.414 443.037 353.07 446.076 352.726C449.172 352.382 452.239 352.095 455.278 351.866L456.826 365.454C455.393 365.569 453.873 365.712 452.268 365.884C450.663 365.999 449.029 366.142 447.366 366.314C445.761 366.486 444.184 366.658 442.636 366.83C441.145 367.002 439.741 367.174 438.422 367.346C435.498 367.69 433.119 368.235 431.284 368.98C429.507 369.668 428.131 370.557 427.156 371.646C426.239 372.735 425.579 374.025 425.178 375.516C424.777 376.949 424.519 378.612 424.404 380.504H425.092C425.665 379.472 426.525 378.44 427.672 377.408C428.819 376.319 430.252 375.43 431.972 374.742C433.692 373.997 435.699 373.624 437.992 373.624C441.547 373.624 444.7 374.341 447.452 375.774C450.261 377.15 452.469 379.329 454.074 382.31C455.737 385.291 456.568 389.219 456.568 394.092C456.568 399.539 455.536 404.125 453.472 407.852C451.408 411.521 448.541 414.273 444.872 416.108C441.26 417.943 437.046 418.86 432.23 418.86C428.561 418.86 425.235 418.229 422.254 416.968C419.33 415.649 416.807 413.757 414.686 411.292C412.565 408.769 410.931 405.702 409.784 402.09C408.695 398.421 408.15 394.235 408.15 389.534ZM433.09 406.648C434.466 406.648 435.641 406.304 436.616 405.616C437.648 404.871 438.451 403.724 439.024 402.176C439.597 400.571 439.884 398.478 439.884 395.898C439.884 392.859 439.425 390.337 438.508 388.33C437.648 386.323 436.043 385.32 433.692 385.32C432.373 385.32 431.083 385.693 429.822 386.438C428.618 387.126 427.557 387.929 426.64 388.846C425.723 389.763 425.121 390.566 424.834 391.254C424.834 393.031 424.977 394.837 425.264 396.672C425.551 398.507 426.009 400.169 426.64 401.66C427.328 403.151 428.188 404.355 429.22 405.272C430.309 406.189 431.599 406.648 433.09 406.648ZM511.638 394.092C511.638 398.048 511.093 401.574 510.004 404.67C508.914 407.766 507.338 410.375 505.274 412.496C503.21 414.56 500.716 416.137 497.792 417.226C494.868 418.315 491.542 418.86 487.816 418.86C484.376 418.86 481.194 418.315 478.27 417.226C475.403 416.137 472.909 414.56 470.788 412.496C468.724 410.375 467.09 407.766 465.886 404.67C464.739 401.574 464.166 398.048 464.166 394.092C464.166 388.817 465.112 384.374 467.004 380.762C468.953 377.093 471.705 374.312 475.26 372.42C478.814 370.528 483.086 369.582 488.074 369.582C492.66 369.582 496.702 370.528 500.2 372.42C503.754 374.312 506.535 377.093 508.542 380.762C510.606 384.374 511.638 388.817 511.638 394.092ZM480.85 394.092C480.85 396.787 481.079 399.08 481.538 400.972C481.996 402.864 482.742 404.297 483.774 405.272C484.863 406.189 486.268 406.648 487.988 406.648C489.708 406.648 491.055 406.189 492.03 405.272C493.062 404.297 493.807 402.864 494.266 400.972C494.724 399.08 494.954 396.787 494.954 394.092C494.954 391.397 494.724 389.133 494.266 387.298C493.807 385.463 493.062 384.087 492.03 383.17C490.998 382.253 489.622 381.794 487.902 381.794C485.436 381.794 483.63 382.826 482.484 384.89C481.394 386.954 480.85 390.021 480.85 394.092ZM564.266 382.654H548.614V418H532.188V382.654H516.536V370.442H564.266V382.654ZM595.186 369.582C601.206 369.582 605.907 371.073 609.29 374.054C612.673 377.035 614.364 381.278 614.364 386.782V418H603.012L599.83 411.722H599.486C598.167 413.385 596.791 414.761 595.358 415.85C593.982 416.882 592.377 417.627 590.542 418.086C588.707 418.602 586.471 418.86 583.834 418.86C581.082 418.86 578.617 418.315 576.438 417.226C574.259 416.079 572.539 414.388 571.278 412.152C570.017 409.859 569.386 406.963 569.386 403.466C569.386 398.363 571.135 394.579 574.632 392.114C578.187 389.649 583.318 388.273 590.026 387.986L597.938 387.728V387.04C597.938 384.919 597.422 383.428 596.39 382.568C595.358 381.651 593.953 381.192 592.176 381.192C590.284 381.192 588.191 381.536 585.898 382.224C583.605 382.855 581.283 383.686 578.932 384.718L574.202 373.882C576.954 372.449 580.05 371.388 583.49 370.7C586.987 369.955 590.886 369.582 595.186 369.582ZM594.24 396.93C591.259 397.045 589.137 397.589 587.876 398.564C586.672 399.481 586.07 400.8 586.07 402.52C586.07 404.125 586.5 405.329 587.36 406.132C588.22 406.877 589.367 407.25 590.8 407.25C592.807 407.25 594.498 406.619 595.874 405.358C597.307 404.097 598.024 402.463 598.024 400.456V396.758L594.24 396.93ZM692.006 382.654H676.354V418H659.928V382.654H644.276V370.442H692.006V382.654ZM743.738 382.74C743.738 385.205 742.993 387.413 741.502 389.362C740.012 391.311 737.718 392.544 734.622 393.06V393.404C738.005 393.805 740.614 394.981 742.448 396.93C744.283 398.879 745.2 401.373 745.2 404.412C745.2 406.189 744.856 407.909 744.168 409.572C743.48 411.177 742.305 412.611 740.642 413.872C738.98 415.133 736.715 416.137 733.848 416.882C730.982 417.627 727.37 418 723.012 418H699.706V370.442H723.098C727.914 370.442 731.842 370.929 734.88 371.904C737.919 372.821 740.155 374.197 741.588 376.032C743.022 377.809 743.738 380.045 743.738 382.74ZM728.516 402.778C728.516 401.574 728.115 400.599 727.312 399.854C726.51 399.051 724.962 398.65 722.668 398.65H716.132V407.25H722.496C724.675 407.25 726.223 406.849 727.14 406.046C728.058 405.186 728.516 404.097 728.516 402.778ZM727.398 384.89C727.398 383.686 726.997 382.769 726.194 382.138C725.449 381.507 724.331 381.192 722.84 381.192H716.132V388.33H722.238C723.958 388.33 725.248 388.015 726.108 387.384C726.968 386.696 727.398 385.865 727.398 384.89ZM799.2 394.092C799.2 398.048 798.656 401.574 797.566 404.67C796.477 407.766 794.9 410.375 792.836 412.496C790.772 414.56 788.278 416.137 785.354 417.226C782.43 418.315 779.105 418.86 775.378 418.86C771.938 418.86 768.756 418.315 765.832 417.226C762.966 416.137 760.472 414.56 758.35 412.496C756.286 410.375 754.652 407.766 753.448 404.67C752.302 401.574 751.728 398.048 751.728 394.092C751.728 388.817 752.674 384.374 754.566 380.762C756.516 377.093 759.268 374.312 762.822 372.42C766.377 370.528 770.648 369.582 775.636 369.582C780.223 369.582 784.265 370.528 787.762 372.42C791.317 374.312 794.098 377.093 796.104 380.762C798.168 384.374 799.2 388.817 799.2 394.092ZM768.412 394.092C768.412 396.787 768.642 399.08 769.1 400.972C769.559 402.864 770.304 404.297 771.336 405.272C772.426 406.189 773.83 406.648 775.55 406.648C777.27 406.648 778.618 406.189 779.592 405.272C780.624 404.297 781.37 402.864 781.828 400.972C782.287 399.08 782.516 396.787 782.516 394.092C782.516 391.397 782.287 389.133 781.828 387.298C781.37 385.463 780.624 384.087 779.592 383.17C778.56 382.253 777.184 381.794 775.464 381.794C772.999 381.794 771.193 382.826 770.046 384.89C768.957 386.954 768.412 390.021 768.412 394.092ZM829.964 369.582C834.608 369.582 838.593 370.385 841.918 371.99C845.301 373.595 847.881 376.003 849.658 379.214C851.493 382.425 852.41 386.467 852.41 391.34V398.65H823.084C823.199 401.115 824.116 403.151 825.836 404.756C827.613 406.361 830.165 407.164 833.49 407.164C836.471 407.164 839.195 406.877 841.66 406.304C844.125 405.731 846.677 404.813 849.314 403.552V415.334C847.021 416.538 844.498 417.427 841.746 418C839.051 418.573 835.64 418.86 831.512 418.86C826.696 418.86 822.396 418.029 818.612 416.366C814.885 414.646 811.933 411.98 809.754 408.368C807.575 404.756 806.486 400.141 806.486 394.522C806.486 388.789 807.461 384.087 809.41 380.418C811.417 376.749 814.169 374.025 817.666 372.248C821.221 370.471 825.32 369.582 829.964 369.582ZM830.566 380.762C828.617 380.762 826.983 381.364 825.664 382.568C824.403 383.772 823.657 385.693 823.428 388.33H837.532C837.532 386.897 837.245 385.635 836.672 384.546C836.156 383.399 835.382 382.482 834.35 381.794C833.318 381.106 832.057 380.762 830.566 380.762ZM907.894 349.888C907.55 353.041 906.633 355.822 905.142 358.23C903.651 360.638 901.444 362.53 898.52 363.906C895.596 365.225 891.783 365.884 887.082 365.884C882.553 365.884 878.797 365.311 875.816 364.164C872.892 362.96 870.685 361.183 869.194 358.832C867.703 356.424 866.815 353.443 866.528 349.888H880.202C880.374 352.927 881.033 354.991 882.18 356.08C883.384 357.169 885.018 357.714 887.082 357.714C888.917 357.714 890.465 357.169 891.726 356.08C892.987 354.933 893.733 352.869 893.962 349.888H907.894ZM876.676 388.932C876.676 389.907 876.647 390.939 876.59 392.028C876.59 393.06 876.561 394.092 876.504 395.124C876.447 396.156 876.361 397.159 876.246 398.134C876.189 399.109 876.131 400.026 876.074 400.886L894.048 370.442H911.936V418H896.972V400.8C896.972 399.309 896.972 397.761 896.972 396.156C897.029 394.551 897.115 393.003 897.23 391.512C897.345 389.964 897.459 388.588 897.574 387.384L879.428 418H861.712V370.442H876.676V388.932ZM1008.13 370.442V418H993.515V394.952C993.515 392.659 993.543 390.423 993.601 388.244C993.715 386.065 993.859 384.059 994.031 382.224H993.773L982.507 418H971.327L960.061 382.138H959.803C959.975 384.03 960.089 386.065 960.147 388.244C960.261 390.365 960.319 392.716 960.319 395.296V418H945.699V370.442H968.059L977.003 399.252L986.119 370.442H1008.13ZM1040.93 369.582C1045.58 369.582 1049.56 370.385 1052.89 371.99C1056.27 373.595 1058.85 376.003 1060.63 379.214C1062.46 382.425 1063.38 386.467 1063.38 391.34V398.65H1034.05C1034.17 401.115 1035.08 403.151 1036.8 404.756C1038.58 406.361 1041.13 407.164 1044.46 407.164C1047.44 407.164 1050.16 406.877 1052.63 406.304C1055.09 405.731 1057.65 404.813 1060.28 403.552V415.334C1057.99 416.538 1055.47 417.427 1052.71 418C1050.02 418.573 1046.61 418.86 1042.48 418.86C1037.66 418.86 1033.36 418.029 1029.58 416.366C1025.85 414.646 1022.9 411.98 1020.72 408.368C1018.54 404.756 1017.45 400.141 1017.45 394.522C1017.45 388.789 1018.43 384.087 1020.38 380.418C1022.39 376.749 1025.14 374.025 1028.63 372.248C1032.19 370.471 1036.29 369.582 1040.93 369.582ZM1041.53 380.762C1039.59 380.762 1037.95 381.364 1036.63 382.568C1035.37 383.772 1034.63 385.693 1034.4 388.33H1048.5C1048.5 386.897 1048.21 385.635 1047.64 384.546C1047.12 383.399 1046.35 382.482 1045.32 381.794C1044.29 381.106 1043.03 380.762 1041.53 380.762ZM1087.04 387.126C1087.04 388.731 1087.39 389.964 1088.07 390.824C1088.82 391.627 1089.97 392.028 1091.51 392.028C1093.18 392.028 1094.95 391.856 1096.85 391.512C1098.74 391.111 1100.66 390.595 1102.61 389.964V370.442H1119.03V418H1102.61V400.714C1100.95 401.459 1098.8 402.233 1096.16 403.036C1093.52 403.839 1090.65 404.24 1087.56 404.24C1081.83 404.24 1077.55 402.921 1074.74 400.284C1071.99 397.647 1070.62 393.547 1070.62 387.986V370.442H1087.04V387.126ZM1174.5 382.654H1158.84V418H1142.42V382.654H1126.77V370.442H1174.5V382.654ZM1182.2 418V370.442H1198.62V387.556H1204.04C1209.03 387.556 1212.96 388.129 1215.82 389.276C1218.69 390.423 1220.7 392.085 1221.84 394.264C1223.05 396.443 1223.65 399.08 1223.65 402.176C1223.65 405.329 1222.99 408.11 1221.67 410.518C1220.35 412.869 1218.12 414.703 1214.96 416.022C1211.87 417.341 1207.6 418 1202.15 418H1182.2ZM1201.37 407.25C1203.38 407.25 1204.84 406.877 1205.76 406.132C1206.74 405.387 1207.22 404.326 1207.22 402.95C1207.22 401.459 1206.82 400.313 1206.02 399.51C1205.22 398.707 1203.61 398.306 1201.2 398.306H1198.62V407.25H1201.37ZM1228.89 418V370.442H1245.32V418H1228.89ZM1323.06 382.74C1323.06 385.205 1322.32 387.413 1320.83 389.362C1319.34 391.311 1317.04 392.544 1313.95 393.06V393.404C1317.33 393.805 1319.94 394.981 1321.77 396.93C1323.61 398.879 1324.52 401.373 1324.52 404.412C1324.52 406.189 1324.18 407.909 1323.49 409.572C1322.8 411.177 1321.63 412.611 1319.97 413.872C1318.3 415.133 1316.04 416.137 1313.17 416.882C1310.31 417.627 1306.69 418 1302.34 418H1279.03V370.442H1302.42C1307.24 370.442 1311.17 370.929 1314.2 371.904C1317.24 372.821 1319.48 374.197 1320.91 376.032C1322.35 377.809 1323.06 380.045 1323.06 382.74ZM1307.84 402.778C1307.84 401.574 1307.44 400.599 1306.64 399.854C1305.83 399.051 1304.29 398.65 1301.99 398.65H1295.46V407.25H1301.82C1304 407.25 1305.55 406.849 1306.46 406.046C1307.38 405.186 1307.84 404.097 1307.84 402.778ZM1306.72 384.89C1306.72 383.686 1306.32 382.769 1305.52 382.138C1304.77 381.507 1303.66 381.192 1302.16 381.192H1295.46V388.33H1301.56C1303.28 388.33 1304.57 388.015 1305.43 387.384C1306.29 386.696 1306.72 385.865 1306.72 384.89ZM1384.7 418H1352.7V408.54L1360.36 405.616V368.894L1352.7 366.056V356.596H1384.7V366.056L1377.04 368.894V405.616L1384.7 408.54V418ZM1421.37 418H1404.77V370.184H1389.81V356.596H1436.33V370.184H1421.37V418Z" fill="white"/>
<rect x="273" y="88" width="128" height="128" rx="22" fill="#0C6AD3"/>
<g clip-path="url(#clip0_0_1)">
<path d="M331.963 132.43L321.162 114.428C320.718 113.688 320.089 113.075 319.338 112.649C318.586 112.224 317.738 112 316.874 112H299.507C297.484 112 296.299 114.277 297.459 115.934L314.844 140.772C319.488 136.433 325.394 133.455 331.963 132.43ZM374.498 112H357.13C355.374 112 353.746 112.922 352.843 114.428L342.041 132.43C348.61 133.455 354.516 136.433 359.16 140.77L376.546 115.934C377.705 114.277 376.521 112 374.498 112ZM337.002 137C321.815 137 309.502 149.312 309.502 164.5C309.502 179.688 321.815 192 337.002 192C352.19 192 364.502 179.688 364.502 164.5C364.502 149.312 352.19 137 337.002 137ZM351.459 161.572L345.532 167.347L346.934 175.506C347.184 176.969 345.643 178.086 344.332 177.395L337.002 173.544L329.674 177.395C328.362 178.091 326.823 176.967 327.073 175.506L328.474 167.347L322.548 161.572C321.482 160.534 322.071 158.723 323.54 158.511L331.732 157.317L335.393 149.892C335.723 149.223 336.36 148.894 336.999 148.894C337.641 148.894 338.284 149.228 338.613 149.892L342.274 157.317L350.466 158.511C351.935 158.723 352.524 160.534 351.459 161.572Z" fill="white"/>
</g>
<rect x="804" width="128" height="128" rx="22" fill="#0C6AD3"/>
<g clip-path="url(#clip1_0_1)">
<path d="M905.857 99H902.286V27.75C902.286 25.6789 900.367 24 898 24H838C835.633 24 833.714 25.6789 833.714 27.75V99H830.143C828.959 99 828 99.8395 828 100.875V104H908V100.875C908 99.8395 907.041 99 905.857 99ZM850.857 35.875C850.857 34.8395 851.817 34 853 34H860.143C861.326 34 862.286 34.8395 862.286 35.875V42.125C862.286 43.1605 861.326 44 860.143 44H853C851.817 44 850.857 43.1605 850.857 42.125V35.875ZM850.857 50.875C850.857 49.8395 851.817 49 853 49H860.143C861.326 49 862.286 49.8395 862.286 50.875V57.125C862.286 58.1605 861.326 59 860.143 59H853C851.817 59 850.857 58.1605 850.857 57.125V50.875ZM860.143 74H853C851.817 74 850.857 73.1605 850.857 72.125V65.875C850.857 64.8395 851.817 64 853 64H860.143C861.326 64 862.286 64.8395 862.286 65.875V72.125C862.286 73.1605 861.326 74 860.143 74ZM873.714 99H862.286V85.875C862.286 84.8395 863.245 84 864.429 84H871.571C872.755 84 873.714 84.8395 873.714 85.875V99ZM885.143 72.125C885.143 73.1605 884.183 74 883 74H875.857C874.674 74 873.714 73.1605 873.714 72.125V65.875C873.714 64.8395 874.674 64 875.857 64H883C884.183 64 885.143 64.8395 885.143 65.875V72.125ZM885.143 57.125C885.143 58.1605 884.183 59 883 59H875.857C874.674 59 873.714 58.1605 873.714 57.125V50.875C873.714 49.8395 874.674 49 875.857 49H883C884.183 49 885.143 49.8395 885.143 50.875V57.125ZM885.143 42.125C885.143 43.1605 884.183 44 883 44H875.857C874.674 44 873.714 43.1605 873.714 42.125V35.875C873.714 34.8395 874.674 34 875.857 34H883C884.183 34 885.143 34.8395 885.143 35.875V42.125Z" fill="white"/>
</g>
<rect y="361" width="128" height="128" rx="22" fill="#0C6AD3"/>
<g clip-path="url(#clip2_0_1)">
<path d="M104 425C104 435.609 99.7857 445.783 92.2843 453.284C84.7828 460.786 74.6087 465 64 465C53.3913 465 43.2172 460.786 35.7157 453.284C28.2143 445.783 24 435.609 24 425C24 414.391 28.2143 404.217 35.7157 396.716C43.2172 389.214 53.3913 385 64 385C74.6087 385 84.7828 389.214 92.2843 396.716C99.7857 404.217 104 414.391 104 425ZM64 402.5C64 401.837 63.7366 401.201 63.2678 400.732C62.7989 400.263 62.163 400 61.5 400C60.837 400 60.2011 400.263 59.7322 400.732C59.2634 401.201 59 401.837 59 402.5V430C59.0001 430.441 59.1168 430.873 59.338 431.255C59.5593 431.636 59.8774 431.951 60.26 432.17L77.76 442.17C78.3343 442.48 79.0072 442.554 79.6349 442.375C80.2626 442.195 80.7954 441.778 81.1192 441.211C81.4431 440.644 81.5325 439.973 81.3682 439.341C81.2039 438.71 80.799 438.167 80.24 437.83L64 428.55V402.5Z" fill="white"/>
</g>
<rect x="1343" y="88" width="128" height="128" rx="22" fill="#0C6AD3"/>
<path fill-rule="evenodd" clip-rule="evenodd" d="M1374 122C1367.92 122 1363 126.925 1363 133V171C1363 177.075 1367.92 182 1374 182H1440C1446.08 182 1451 177.075 1451 171V133C1451 126.925 1446.08 122 1440 122H1374ZM1381 147C1379.34 147 1378 148.343 1378 150C1378 151.657 1379.34 153 1381 153H1404C1405.66 153 1407 151.657 1407 150C1407 148.343 1405.66 147 1404 147H1381ZM1378 164C1378 162.343 1379.34 161 1381 161H1433C1434.66 161 1436 162.343 1436 164C1436 165.657 1434.66 167 1433 167H1381C1379.34 167 1378 165.657 1378 164ZM1421 137C1418.24 137 1416 139.239 1416 142V148C1416 150.761 1418.24 153 1421 153H1432C1434.76 153 1437 150.761 1437 148V142C1437 139.239 1434.76 137 1432 137H1421Z" fill="white"/>
<rect x="1607" y="361" width="128" height="128" rx="22" fill="#0C6AD3"/>
<g clip-path="url(#clip3_0_1)">
<path d="M1671 465C1681.61 465 1691.78 460.786 1699.28 453.284C1706.79 445.783 1711 435.609 1711 425C1711 414.391 1706.79 404.217 1699.28 396.716C1691.78 389.214 1681.61 385 1671 385C1660.39 385 1650.22 389.214 1642.72 396.716C1635.21 404.217 1631 414.391 1631 425C1631 435.609 1635.21 445.783 1642.72 453.284C1650.22 460.786 1660.39 465 1671 465ZM1666 417.5C1666 421.64 1663.76 425 1661 425C1658.24 425 1656 421.64 1656 417.5C1656 413.36 1658.24 410 1661 410C1663.76 410 1666 413.36 1666 417.5ZM1652.42 432.835C1653 432.503 1653.68 432.414 1654.32 432.585C1654.96 432.757 1655.51 433.176 1655.84 433.75C1657.38 436.412 1659.59 438.622 1662.25 440.158C1664.91 441.694 1667.93 442.502 1671 442.5C1674.07 442.502 1677.09 441.694 1679.75 440.158C1682.41 438.622 1684.62 436.412 1686.16 433.75C1686.32 433.463 1686.54 433.212 1686.8 433.01C1687.06 432.808 1687.36 432.659 1687.68 432.573C1688 432.487 1688.33 432.464 1688.66 432.506C1688.98 432.549 1689.3 432.656 1689.58 432.821C1689.87 432.985 1690.12 433.205 1690.32 433.467C1690.52 433.729 1690.67 434.028 1690.75 434.347C1690.83 434.665 1690.85 434.998 1690.81 435.324C1690.77 435.651 1690.66 435.966 1690.49 436.25C1688.52 439.672 1685.67 442.513 1682.25 444.488C1678.83 446.463 1674.95 447.502 1671 447.5C1667.05 447.502 1663.17 446.463 1659.75 444.488C1656.33 442.513 1653.48 439.672 1651.51 436.25C1651.18 435.676 1651.09 434.993 1651.26 434.353C1651.43 433.713 1651.85 433.167 1652.42 432.835ZM1681 425C1678.24 425 1676 421.64 1676 417.5C1676 413.36 1678.24 410 1681 410C1683.76 410 1686 413.36 1686 417.5C1686 421.64 1683.76 425 1681 425Z" fill="white"/>
</g>
<defs>
<clipPath id="clip0_0_1">
<rect width="80" height="80" fill="white" transform="translate(297 112)"/>
</clipPath>
<clipPath id="clip1_0_1">
<rect width="80" height="80" fill="white" transform="translate(828 24)"/>
</clipPath>
<clipPath id="clip2_0_1">
<rect width="80" height="80" fill="white" transform="translate(24 385)"/>
</clipPath>
<clipPath id="clip3_0_1">
<rect width="80" height="80" fill="white" transform="translate(1631 385)"/>
</clipPath>
</defs>
</svg>
