<svg width="289" height="128" viewBox="0 0 289 128" fill="none" xmlns="http://www.w3.org/2000/svg">
<path fill-rule="evenodd" clip-rule="evenodd" d="M289 22C289 9.84974 279.15 0 267 0H22C9.84974 0 0 9.84974 0 22V106C0 118.15 9.84973 128 22 128H267C279.15 128 289 118.15 289 106V22Z" fill="#D9D9D9"/>
<path d="M127.99 74.7723H110.676L132.779 45.3002C133.261 44.6531 133.127 43.7093 132.485 43.224C132.244 43.0352 131.923 42.9274 131.602 42.9274H99.6247C96.815 42.9274 94.5137 45.2463 94.5137 48.0776C94.5137 50.9088 96.815 53.2278 99.6247 53.2278H113.994L91.811 82.7268C91.3026 83.374 91.4364 84.2908 92.0786 84.8031C92.3462 85.0188 92.6673 85.1267 92.9884 85.0997H127.963C130.772 84.9649 132.94 82.5381 132.806 79.6798C132.672 77.0373 130.585 74.9341 127.963 74.7993V74.7723H127.99ZM239.736 42.9274C236.926 42.9274 234.625 45.2463 234.625 48.0776V65.3617L207.01 43.2779C206.394 42.7656 205.458 42.8465 204.949 43.4936C204.735 43.7633 204.628 44.0868 204.628 44.4374V79.9495C204.628 82.7807 206.929 85.0997 209.739 85.0997C212.549 85.0997 214.85 82.8077 214.85 79.9495V62.6653L242.466 84.7761C243.108 85.2884 244.044 85.1806 244.553 84.5334C244.767 84.2638 244.874 83.9402 244.874 83.6166V48.0776C244.847 45.2193 242.573 42.9274 239.736 42.9274ZM166.657 75.743C154.963 75.743 146.239 69.5412 146.239 63.9866C146.239 58.4319 154.99 52.2301 166.657 52.2301C178.35 52.2301 187.074 58.4319 187.074 63.9866C187.074 69.5412 178.377 75.743 166.657 75.743ZM166.657 41.9297C149.745 41.9297 136.017 51.7987 136.017 63.9866C136.017 76.1745 149.745 86.0434 166.657 86.0434C183.568 86.0434 197.296 76.1745 197.296 63.9866C197.296 51.7987 183.568 41.9297 166.657 41.9297ZM66.0686 75.77C59.6196 75.77 54.3748 70.5119 54.3748 64.0135C54.3748 57.5151 59.5929 52.2301 66.0418 52.2301C72.4908 52.2301 77.7356 57.4881 77.7356 63.9866V64.0135C77.7356 70.485 72.5176 75.743 66.0686 75.77ZM66.0686 41.9297C53.9734 41.9297 44.1795 51.7987 44.1528 63.9866C44.1528 76.1745 53.9467 86.0434 66.0418 86.0704C78.137 86.0704 87.9309 76.2014 87.9577 64.0135V63.9866C87.9309 51.7987 78.137 41.9297 66.0686 41.9297Z" fill="#161719"/>
</svg>
