<svg width="50" height="50" viewBox="0 0 50 50" fill="none" xmlns="http://www.w3.org/2000/svg">
<rect width="50" height="50" rx="13" fill="white"/>
<g clip-path="url(#clip0_33_189)">
<path d="M39 25C39 28.713 37.525 32.274 34.8995 34.8995C32.274 37.525 28.713 39 25 39C21.287 39 17.726 37.525 15.1005 34.8995C12.475 32.274 11 28.713 11 25C11 21.287 12.475 17.726 15.1005 15.1005C17.726 12.475 21.287 11 25 11C28.713 11 32.274 12.475 34.8995 15.1005C37.525 17.726 39 21.287 39 25ZM25.5022 21.3355C24.1407 21.9025 21.4178 23.075 17.3368 24.853C16.6753 25.1155 16.327 25.3745 16.2955 25.6265C16.243 26.0517 16.7768 26.2198 17.503 26.449L17.8092 26.5453C18.5233 26.778 19.4857 27.0492 19.9845 27.0597C20.4395 27.0702 20.9452 26.8848 21.5035 26.4998C25.3167 23.9255 27.2855 22.6252 27.408 22.5972C27.4955 22.5763 27.618 22.5518 27.6985 22.6252C27.7808 22.697 27.772 22.8352 27.7633 22.872C27.7108 23.0977 25.616 25.0437 24.5327 26.0518C24.195 26.3667 23.9552 26.589 23.9062 26.6398C23.7984 26.75 23.6887 26.8585 23.5772 26.9653C22.9122 27.6058 22.4152 28.0853 23.6035 28.8693C24.1757 29.2473 24.6342 29.557 25.091 29.8685C25.588 30.208 26.085 30.5457 26.729 30.9692C26.8917 31.0743 27.0493 31.188 27.2015 31.2965C27.7808 31.7095 28.304 32.0805 28.9463 32.021C29.3207 31.986 29.7075 31.636 29.9035 30.586C30.3673 28.1063 31.279 22.7355 31.489 20.5217C31.5018 20.3377 31.4942 20.1528 31.4662 19.9705C31.4498 19.8234 31.3786 19.6878 31.2668 19.5907C31.1075 19.4808 30.9177 19.4239 30.7243 19.428C30.1992 19.4368 29.389 19.7185 25.5022 21.3355Z" fill="#2B3035"/>
</g>
<defs>
<clipPath id="clip0_33_189">
<rect width="28" height="28" fill="white" transform="translate(11 11)"/>
</clipPath>
</defs>
</svg>
