<svg width="50" height="50" viewBox="0 0 50 50" fill="none" xmlns="http://www.w3.org/2000/svg">
<rect width="50" height="50" rx="13" fill="white"/>
<path d="M20.539 35.5001C29.596 35.5001 34.5505 27.9956 34.5505 21.4991C34.5505 21.2891 34.5505 21.0761 34.5415 20.8661C35.5061 20.1678 36.3386 19.3033 37 18.3131C36.099 18.7103 35.1441 18.9722 34.1665 19.0901C35.1963 18.4745 35.9676 17.506 36.337 16.3646C35.3695 16.9377 34.3105 17.3401 33.2065 17.5541C32.4643 16.7636 31.4821 16.2399 30.4121 16.0642C29.3421 15.8885 28.2441 16.0704 27.288 16.582C26.3319 17.0935 25.5712 17.906 25.1237 18.8937C24.6761 19.8813 24.5668 20.989 24.8125 22.0451C22.8546 21.9469 20.9392 21.4383 19.1906 20.5522C17.4419 19.6661 15.899 18.4223 14.662 16.9016C14.034 17.9862 13.8424 19.2692 14.126 20.49C14.4096 21.7108 15.1472 22.7779 16.189 23.4746C15.4083 23.448 14.6448 23.2384 13.96 22.8626V22.9301C13.9613 24.0663 14.355 25.1672 15.0743 26.0467C15.7937 26.9262 16.7946 27.5304 17.908 27.7571C17.4854 27.8735 17.0488 27.9315 16.6105 27.9296C16.3015 27.9305 15.9931 27.9019 15.6895 27.8441C16.0042 28.8221 16.6169 29.6773 17.4419 30.2898C18.2668 30.9022 19.2627 31.2413 20.29 31.2596C18.5448 32.6303 16.3891 33.3737 14.17 33.3701C13.779 33.3717 13.3882 33.3492 13 33.3026C15.2523 34.7385 17.8679 35.5009 20.539 35.5001Z" fill="#2B3035"/>
</svg>
