<svg width="128" height="128" viewBox="0 0 128 128" fill="none" xmlns="http://www.w3.org/2000/svg">
<path d="M61.3734 128H66.7034C95.6368 128 110.106 128 119.091 119.014C128.077 110.029 128 95.5648 128 66.7034V61.2966C128 32.4403 128 17.9712 119.091 8.9856C110.182 2.59399e-05 95.6368 0 66.7034 0H61.3734C32.4352 0 17.9712 2.59399e-05 8.9856 8.9856C-5.34058e-06 17.9712 0 32.4301 0 61.2966V66.7034C0 95.5648 -5.34058e-06 110.029 8.9856 119.014C17.9712 128 32.4352 128 61.3734 128Z" fill="white"/>
<path d="M68.6858 92.2872C39.8243 92.2872 22.3089 72.2631 21.6279 38.9883H36.2455C36.7012 63.4311 47.8219 73.8042 56.3467 75.9188V38.9883H70.3601V60.0775C78.5828 59.1661 87.1842 49.5712 90.0826 38.9883H103.86C101.654 52.0084 92.289 61.6033 85.6634 65.5611C92.289 68.7611 102.949 77.1373 107.06 92.2872H91.9098C88.7098 82.16 80.8666 74.3162 70.3601 73.2512V92.2872H68.6858Z" fill="#161719"/>
</svg>

