<svg width="50" height="50" viewBox="0 0 50 50" fill="none" xmlns="http://www.w3.org/2000/svg">
<path d="M23.974 50H26.056C37.3581 50 43.01 50 46.52 46.49C50.03 42.98 50 37.33 50 26.056V23.944C50 12.672 50 7.02 46.52 3.51C43.04 1.01328e-05 37.3581 0 26.056 0H23.974C12.67 0 7.02 1.01328e-05 3.51 3.51C-2.08616e-06 7.02 0 12.668 0 23.944V26.056C0 37.33 -2.08616e-06 42.98 3.51 46.49C7.02 50 12.67 50 23.974 50Z" fill="white"/>
<path d="M26.8302 36.0499C15.5562 36.0499 8.71424 28.2279 8.44824 15.23H14.1582C14.3362 24.7779 18.6802 28.8299 22.0102 29.6559V15.23H27.4842V23.4679C30.6962 23.1119 34.0562 19.3639 35.1883 15.23H40.5702C39.7083 20.3159 36.0502 24.064 33.4621 25.61C36.0502 26.86 40.2143 30.1319 41.8202 36.0499H35.9021C34.6521 32.0939 31.5883 29.0299 27.4842 28.6139V36.0499H26.8302Z" fill="#2B3035"/>
</svg>
