<svg width="128" height="128" viewBox="0 0 128 128" fill="none" xmlns="http://www.w3.org/2000/svg">
<g clip-path="url(#clip0_21_64)">
<path d="M64 127.87C99.2742 127.87 127.87 99.2742 127.87 64C127.87 28.7258 99.2742 0.130371 64 0.130371C28.7258 0.130371 0.130371 28.7258 0.130371 64C0.130371 99.2742 28.7258 127.87 64 127.87Z" fill="white"/>
<path d="M87.1111 104.095H73.0904V34.7496H66.8445C55.3956 34.7496 49.3985 40.4741 49.3985 49.0192C49.3985 58.7141 53.5348 63.2059 62.0919 68.9303L69.1437 73.6829L48.8771 104.083H33.8015L52.0415 76.9422C41.5526 69.4518 35.6504 62.1392 35.6504 49.8015C35.6504 34.3822 46.4 23.8933 66.7497 23.8933H87.0163V104.071H87.1111V104.095Z" fill="#161719"/>
</g>
<defs>
<clipPath id="clip0_21_64">
<rect width="128" height="128" fill="white"/>
</clipPath>
</defs>
</svg>
