<svg width="50" height="50" viewBox="0 0 50 50" fill="none" xmlns="http://www.w3.org/2000/svg">
<rect width="50" height="50" rx="13" fill="white"/>
<g clip-path="url(#clip0_33_188)">
<path d="M25.0892 14.4983H25.245C26.6835 14.5035 33.9722 14.556 35.9375 15.0845C36.5316 15.2458 37.073 15.5602 37.5075 15.9963C37.9421 16.4324 38.2546 16.9749 38.4137 17.5695C38.5905 18.2345 38.7148 19.1148 38.7987 20.023L38.8162 20.205L38.8547 20.66L38.8687 20.842C38.9825 22.4415 38.9965 23.9395 38.9982 24.2668V24.398C38.9965 24.7375 38.9807 26.337 38.8547 28.003L38.8408 28.1868L38.825 28.3688C38.7375 29.3698 38.608 30.3638 38.4137 31.0953C38.255 31.6902 37.9427 32.2329 37.5081 32.6691C37.0735 33.1052 36.5319 33.4195 35.9375 33.5803C33.9075 34.1263 26.1917 34.1648 25.1225 34.1665H24.874C24.3333 34.1665 22.0968 34.156 19.7517 34.0755L19.4542 34.065L19.302 34.058L19.0028 34.0458L18.7035 34.0335C16.761 33.9478 14.9113 33.8095 14.059 33.5785C13.4649 33.4179 12.9234 33.1039 12.4888 32.6681C12.0542 32.2323 11.7417 31.6899 11.5828 31.0953C11.3885 30.3655 11.259 29.3698 11.1715 28.3688L11.1575 28.185L11.1435 28.003C11.0571 26.8172 11.0093 25.6289 11 24.44L11 24.2248C11.0035 23.8485 11.0175 22.5483 11.112 21.1133L11.1243 20.933L11.1295 20.842L11.1435 20.66L11.182 20.205L11.1995 20.023C11.2835 19.1148 11.4077 18.2328 11.5845 17.5695C11.7432 16.9746 12.0555 16.4319 12.4901 15.9957C12.9248 15.5596 13.4664 15.2454 14.0608 15.0845C14.913 14.857 16.7627 14.717 18.7052 14.6295L19.0028 14.6173L19.3038 14.6068L19.4542 14.6015L19.7535 14.5893C21.419 14.5357 23.0852 14.5059 24.7515 14.5H25.0892V14.4983ZM22.2 20.1158V28.5473L29.4748 24.3333L22.2 20.1158Z" fill="#2B3035"/>
</g>
<defs>
<clipPath id="clip0_33_188">
<rect width="28" height="28" fill="white" transform="translate(11 11)"/>
</clipPath>
</defs>
</svg>
