<svg width="100" height="100" viewBox="0 0 100 100" fill="none" xmlns="http://www.w3.org/2000/svg">
<rect width="100" height="100" rx="22" fill="#0C6AD3"/>
<path d="M24.9987 30.0013C24.9987 24.4775 36.1925 20 50 20C63.8075 20 75.0012 24.4775 75.0012 30.0013V35C75.0012 40.5238 63.8075 45.0012 50 45.0012C36.1925 45.0012 24.9987 40.5238 24.9987 35V30.0013Z" fill="white"/>
<path d="M24.9987 43.7524V55.0024C24.9987 60.5187 36.1925 64.9999 50 64.9999C63.8075 64.9999 75.0012 60.5224 75.0012 54.9987V43.7524C73.3125 44.969 71.4751 45.9645 69.5337 46.7149C64.2875 48.8149 57.3762 49.9999 50 49.9999C42.6275 49.9999 35.7162 48.8112 30.47 46.7149C28.5286 45.9646 26.6912 44.969 25.0025 43.7524H24.9987Z" fill="white"/>
<path d="M75.0012 63.755C73.3123 64.9702 71.4749 65.9645 69.5337 66.7137C64.2837 68.8137 57.3763 69.9987 49.9963 69.9987C42.6238 69.9987 35.7125 68.8137 30.4662 66.7137C28.5249 65.9633 26.6875 64.9678 24.9987 63.7512V69.9987C24.9987 75.5225 36.1925 80 50 80C63.8075 80 75.0012 75.5225 75.0012 69.9987V63.755Z" fill="white"/>
</svg>
