<svg width="100" height="100" viewBox="0 0 100 100" fill="none" xmlns="http://www.w3.org/2000/svg">
<rect width="100" height="100" rx="22" fill="#0C6AD3"/>
<path d="M63.125 42.6012C63.125 43.0985 62.9275 43.5754 62.5758 43.927C62.2242 44.2787 61.7473 44.4762 61.25 44.4762C60.7527 44.4762 60.2758 44.2787 59.9242 43.927C59.5725 43.5754 59.375 43.0985 59.375 42.6012C59.375 42.1039 59.5725 41.627 59.9242 41.2754C60.2758 40.9237 60.7527 40.7262 61.25 40.7262C61.7473 40.7262 62.2242 40.9237 62.5758 41.2754C62.9275 41.627 63.125 42.1039 63.125 42.6012ZM57.5 48.2262C57.9973 48.2262 58.4742 48.0287 58.8258 47.677C59.1775 47.3254 59.375 46.8485 59.375 46.3512C59.375 45.8539 59.1775 45.377 58.8258 45.0254C58.4742 44.6737 57.9973 44.4762 57.5 44.4762C57.0027 44.4762 56.5258 44.6737 56.1742 45.0254C55.8225 45.377 55.625 45.8539 55.625 46.3512C55.625 46.8485 55.8225 47.3254 56.1742 47.677C56.5258 48.0287 57.0027 48.2262 57.5 48.2262ZM66.875 46.3512C66.875 46.8485 66.6775 47.3254 66.3258 47.677C65.9742 48.0287 65.4973 48.2262 65 48.2262C64.5027 48.2262 64.0258 48.0287 63.6742 47.677C63.3225 47.3254 63.125 46.8485 63.125 46.3512C63.125 45.8539 63.3225 45.377 63.6742 45.0254C64.0258 44.6737 64.5027 44.4762 65 44.4762C65.4973 44.4762 65.9742 44.6737 66.3258 45.0254C66.6775 45.377 66.875 45.8539 66.875 46.3512ZM61.25 51.9762C61.7473 51.9762 62.2242 51.7787 62.5758 51.427C62.9275 51.0754 63.125 50.5985 63.125 50.1012C63.125 49.6039 62.9275 49.127 62.5758 48.7754C62.2242 48.4237 61.7473 48.2262 61.25 48.2262C60.7527 48.2262 60.2758 48.4237 59.9242 48.7754C59.5725 49.127 59.375 49.6039 59.375 50.1012C59.375 50.5985 59.5725 51.0754 59.9242 51.427C60.2758 51.7787 60.7527 51.9762 61.25 51.9762ZM36.875 40.7262H40.625V44.4762H44.375V48.2262H40.625V51.9762H36.875V48.2262H33.125V44.4762H36.875V40.7262Z" fill="white"/>
<path d="M31.4412 32.225C31.3772 31.9869 31.3607 31.7385 31.3928 31.494C31.4249 31.2495 31.5049 31.0138 31.6282 30.8003C31.7515 30.5868 31.9157 30.3996 32.1114 30.2497C32.3071 30.0997 32.5305 29.9898 32.7687 29.9263L40.0137 27.9838C40.2628 27.9174 40.5229 27.9031 40.7777 27.9417C41.0326 27.9804 41.2767 28.0712 41.4949 28.2084C41.7131 28.3457 41.9006 28.5264 42.0458 28.7394C42.191 28.9524 42.2907 29.193 42.3387 29.4463C44.795 29.15 47.4012 29.0075 50 29.0075C52.7 29.0075 55.4112 29.1613 57.95 29.48C57.9938 29.2229 58.0908 28.9778 58.2348 28.7603C58.3787 28.5428 58.5664 28.3578 58.7859 28.217C59.0055 28.0762 59.2519 27.9827 59.5096 27.9425C59.7673 27.9024 60.0305 27.9164 60.2825 27.9838L67.5275 29.9263C67.8039 30.0003 68.0598 30.1366 68.2754 30.3247C68.491 30.5129 68.6607 30.7479 68.7715 31.0118C68.8823 31.2757 68.9312 31.5614 68.9144 31.8471C68.8977 32.1328 68.8158 32.4109 68.675 32.66C69.2 32.9975 69.6725 33.3725 70.0737 33.7738C71.6037 35.3038 72.9987 37.7113 74.18 40.4188C75.38 43.1675 76.4262 46.385 77.1987 49.6663C77.9712 52.9475 78.4737 56.3413 78.5637 59.4388C78.6537 62.4988 78.3425 65.4463 77.3337 67.7263C76.8737 68.7499 76.1021 69.602 75.1289 70.1609C74.1558 70.7199 73.031 70.9571 71.915 70.8388C69.53 70.5875 67.7337 69.3613 66.2412 67.94C65.3225 67.07 64.3812 65.9675 63.47 64.91C62.9975 64.355 62.5325 63.815 62.09 63.3238C59.36 60.3088 56.1012 57.5975 50 57.5975C43.8987 57.5975 40.64 60.3088 37.91 63.3238C37.4637 63.815 37.0025 64.355 36.53 64.91C35.6187 65.9675 34.6775 67.0663 33.7587 67.94C32.2662 69.365 30.47 70.5875 28.085 70.8388C26.969 70.9571 25.8442 70.7199 24.871 70.1609C23.8979 69.602 23.1263 68.7499 22.6662 67.7263C21.6537 65.4463 21.3462 62.495 21.4325 59.4388C21.5225 56.3413 22.0325 52.9513 22.8012 49.6663C23.5737 46.385 24.6237 43.1675 25.82 40.4188C27.0012 37.7113 28.3962 35.3038 29.9225 33.7738C30.4127 33.2929 30.9577 32.8713 31.5462 32.5175C31.5031 32.4218 31.468 32.3228 31.4412 32.2213V32.225ZM39.0762 33.77C35.7875 34.4638 33.5675 35.4313 32.5775 36.425C31.5425 37.46 30.3762 39.3613 29.2587 41.9188C28.0732 44.6997 27.1346 47.5796 26.4537 50.525C25.7345 53.4834 25.3087 56.5055 25.1825 59.5475C25.1 62.3788 25.415 64.6775 26.0937 66.2075C26.2327 66.5055 26.4615 66.7525 26.748 66.9139C27.0345 67.0753 27.3643 67.143 27.6912 67.1075C28.9175 66.98 29.9787 66.3613 31.175 65.225C31.97 64.4675 32.675 63.6388 33.4812 62.6975C33.98 62.1125 34.5162 61.4863 35.1312 60.8075C38.2287 57.3838 42.4175 53.8513 50 53.8513C57.5825 53.8513 61.7712 57.3838 64.8687 60.8075C65.4837 61.4863 66.02 62.1125 66.5187 62.6975C67.3212 63.6388 68.03 64.4675 68.825 65.225C70.0175 66.3613 71.0787 66.98 72.3087 67.1113C72.6361 67.1465 72.9662 67.0782 73.2527 66.9161C73.5393 66.754 73.7678 66.5062 73.9062 66.2075C74.5812 64.6775 74.9 62.3825 74.8175 59.5475C74.6912 56.5055 74.2654 53.4834 73.5462 50.525C72.8653 47.5796 71.9267 44.6998 70.7412 41.9188C69.6237 39.3613 68.4537 37.4563 67.4225 36.425C66.4325 35.4313 64.2125 34.4638 60.9237 33.77C57.7362 33.0988 53.885 32.7575 50 32.7575C46.115 32.7575 42.2637 33.0988 39.0762 33.77Z" fill="white"/>
</svg>
