<svg width="100" height="100" viewBox="0 0 100 100" fill="none" xmlns="http://www.w3.org/2000/svg">
<rect width="100" height="100" rx="22" fill="#0C6AD3"/>
<g clip-path="url(#clip0_17_122)">
<path d="M63.125 19.375C64.2853 19.375 65.3981 19.8359 66.2186 20.6564C67.0391 21.4769 67.5 22.5897 67.5 23.75V76.25C67.5 77.4103 67.0391 78.5231 66.2186 79.3436C65.3981 80.1641 64.2853 80.625 63.125 80.625H36.875C35.7147 80.625 34.6019 80.1641 33.7814 79.3436C32.9609 78.5231 32.5 77.4103 32.5 76.25V23.75C32.5 22.5897 32.9609 21.4769 33.7814 20.6564C34.6019 19.8359 35.7147 19.375 36.875 19.375H63.125ZM36.875 15C34.5544 15 32.3288 15.9219 30.6878 17.5628C29.0469 19.2038 28.125 21.4294 28.125 23.75V76.25C28.125 78.5706 29.0469 80.7962 30.6878 82.4372C32.3288 84.0781 34.5544 85 36.875 85H63.125C65.4456 85 67.6712 84.0781 69.3122 82.4372C70.9531 80.7962 71.875 78.5706 71.875 76.25V23.75C71.875 21.4294 70.9531 19.2038 69.3122 17.5628C67.6712 15.9219 65.4456 15 63.125 15H36.875Z" fill="white"/>
<path d="M50 76.25C51.1603 76.25 52.2731 75.7891 53.0936 74.9686C53.9141 74.1481 54.375 73.0353 54.375 71.875C54.375 70.7147 53.9141 69.6019 53.0936 68.7814C52.2731 67.9609 51.1603 67.5 50 67.5C48.8397 67.5 47.7269 67.9609 46.9064 68.7814C46.0859 69.6019 45.625 70.7147 45.625 71.875C45.625 73.0353 46.0859 74.1481 46.9064 74.9686C47.7269 75.7891 48.8397 76.25 50 76.25Z" fill="white"/>
</g>
<g clip-path="url(#clip1_17_122)">
<path d="M59.4312 53.1976C59.5479 53.8687 59.606 54.5488 59.605 55.2301C59.605 58.2726 58.5175 60.8451 56.625 62.5863H56.6275C54.9725 64.1151 52.6975 65.0001 50 65.0001C47.3478 65.0001 44.8043 63.9465 42.9289 62.0711C41.0536 60.1958 40 57.6522 40 55.0001C40 52.3479 41.0536 49.8043 42.9289 47.929C44.8043 46.0536 47.3478 45 50 45C52.4824 44.971 54.8798 45.9036 56.69 47.6025L53.835 50.4576C52.803 49.4738 51.4256 48.935 50 48.9575C47.3912 48.9575 45.175 50.7175 44.385 53.0876C43.9661 54.3294 43.9661 55.6744 44.385 56.9163H44.3887C45.1825 59.2826 47.395 61.0426 50.0037 61.0426C51.3512 61.0426 52.5087 60.6976 53.4062 60.0876H53.4025C53.9236 59.7423 54.3694 59.2951 54.7129 58.7728C55.0565 58.2505 55.2906 57.6641 55.4012 57.0488H50V53.1988H59.4312V53.1976Z" fill="white"/>
</g>
<g clip-path="url(#clip2_17_122)">
<path d="M53.9775 21.01C53.935 20.9625 52.4038 21.0288 51.0713 22.475C49.7388 23.92 49.9438 25.5775 49.9738 25.62C50.0038 25.6625 51.8738 25.7288 53.0675 24.0475C54.2613 22.3663 54.02 21.0588 53.9775 21.01ZM58.12 35.6763C58.06 35.5563 55.2138 34.1338 55.4788 31.3988C55.7438 28.6625 57.5725 27.9125 57.6013 27.8313C57.63 27.75 56.855 26.8438 56.0338 26.385C55.4308 26.0616 54.7634 25.8763 54.08 25.8425C53.945 25.8388 53.4763 25.7238 52.5125 25.9875C51.8775 26.1613 50.4463 26.7238 50.0525 26.7463C49.6575 26.7688 48.4825 26.0938 47.2188 25.915C46.41 25.7588 45.5525 26.0788 44.9388 26.325C44.3263 26.57 43.1613 27.2675 42.3463 29.1213C41.5313 30.9738 41.9575 33.9088 42.2625 34.8213C42.5675 35.7325 43.0438 37.2263 43.8538 38.3163C44.5738 39.5463 45.5288 40.4 45.9275 40.69C46.3263 40.98 47.4513 41.1725 48.2313 40.7738C48.8588 40.3888 49.9913 40.1675 50.4388 40.1838C50.885 40.2 51.765 40.3763 52.6663 40.8575C53.38 41.1038 54.055 41.0013 54.7313 40.7263C55.4075 40.45 56.3863 39.4025 57.5288 37.2788C57.9625 36.2913 58.16 35.7575 58.12 35.6763Z" fill="white"/>
<path d="M53.9775 21.01C53.935 20.9625 52.4038 21.0288 51.0713 22.475C49.7388 23.92 49.9438 25.5775 49.9738 25.62C50.0038 25.6625 51.8738 25.7288 53.0675 24.0475C54.2613 22.3663 54.02 21.0588 53.9775 21.01ZM58.12 35.6763C58.06 35.5563 55.2138 34.1338 55.4788 31.3988C55.7438 28.6625 57.5725 27.9125 57.6013 27.8313C57.63 27.75 56.855 26.8438 56.0338 26.385C55.4308 26.0616 54.7634 25.8763 54.08 25.8425C53.945 25.8388 53.4763 25.7238 52.5125 25.9875C51.8775 26.1613 50.4463 26.7238 50.0525 26.7463C49.6575 26.7688 48.4825 26.0938 47.2188 25.915C46.41 25.7588 45.5525 26.0788 44.9388 26.325C44.3263 26.57 43.1613 27.2675 42.3463 29.1213C41.5313 30.9738 41.9575 33.9088 42.2625 34.8213C42.5675 35.7325 43.0438 37.2263 43.8538 38.3163C44.5738 39.5463 45.5288 40.4 45.9275 40.69C46.3263 40.98 47.4513 41.1725 48.2313 40.7738C48.8588 40.3888 49.9913 40.1675 50.4388 40.1838C50.885 40.2 51.765 40.3763 52.6663 40.8575C53.38 41.1038 54.055 41.0013 54.7313 40.7263C55.4075 40.45 56.3863 39.4025 57.5288 37.2788C57.9625 36.2913 58.16 35.7575 58.12 35.6763Z" fill="white"/>
</g>
<defs>
<clipPath id="clip0_17_122">
<rect width="70" height="70" fill="white" transform="translate(15 15)"/>
</clipPath>
<clipPath id="clip1_17_122">
<rect width="20" height="20" fill="white" transform="translate(40 45)"/>
</clipPath>
<clipPath id="clip2_17_122">
<rect width="20" height="20" fill="white" transform="translate(40 21)"/>
</clipPath>
</defs>
</svg>
