<svg width="100" height="100" viewBox="0 0 100 100" fill="none" xmlns="http://www.w3.org/2000/svg">
<rect width="100" height="100" rx="22" fill="#0C6AD3"/>
<g clip-path="url(#clip0_17_114)">
<path d="M23 46.25H26V68.75H23C22.6059 68.7506 22.2156 68.654 21.8514 68.4658C21.4872 68.2775 21.1563 68.0013 20.8776 67.653C20.599 67.3046 20.378 66.891 20.2274 66.4358C20.0768 65.9805 19.9995 65.4926 20 65V50C19.9995 49.5074 20.0768 49.0195 20.2274 48.5642C20.378 48.109 20.599 47.6954 20.8776 47.347C21.1563 46.9987 21.4872 46.7225 21.8514 46.5342C22.2156 46.346 22.6059 46.2494 23 46.25ZM71 40.625V72.5C70.9984 74.4885 70.3658 76.395 69.2409 77.8011C68.116 79.2072 66.5908 79.998 65 80H35C33.4092 79.998 31.884 79.2072 30.7591 77.8011C29.6342 76.395 29.0016 74.4885 29 72.5V40.625C28.9997 39.3937 29.1935 38.1745 29.5703 37.0369C29.9471 35.8993 30.4995 34.8656 31.196 33.995C31.8925 33.1244 32.7194 32.4338 33.6295 31.9628C34.5396 31.4918 35.515 31.2496 36.5 31.25H47V23.75C47 22.7554 47.3161 21.8016 47.8787 21.0983C48.4413 20.3951 49.2044 20 50 20C50.7957 20 51.5587 20.3951 52.1213 21.0983C52.6839 21.8016 53 22.7554 53 23.75V31.25H63.5C64.485 31.2496 65.4604 31.4918 66.3705 31.9628C67.2806 32.4338 68.1075 33.1244 68.804 33.995C69.5005 34.8656 70.0529 35.8993 70.4297 37.0369C70.8065 38.1745 71.0003 39.3937 71 40.625ZM44.75 50C44.75 49.0729 44.5301 48.1666 44.118 47.3958C43.706 46.6249 43.1203 46.0241 42.4351 45.6693C41.7498 45.3145 40.9958 45.2217 40.2684 45.4026C39.541 45.5834 38.8728 46.0299 38.3484 46.6854C37.8239 47.341 37.4668 48.1762 37.3221 49.0855C37.1774 49.9948 37.2516 50.9373 37.5355 51.7938C37.8193 52.6504 38.2999 53.3824 38.9166 53.8975C39.5333 54.4126 40.2583 54.6875 41 54.6875C41.4925 54.6875 41.9801 54.5663 42.4351 54.3308C42.8901 54.0952 43.3035 53.75 43.6517 53.3147C44 52.8794 44.2762 52.3626 44.4646 51.7939C44.6531 51.2251 44.75 50.6156 44.75 50ZM44 65H38V68.75H44V65ZM53 65H47V68.75H53V65ZM62.75 50C62.75 49.0729 62.5301 48.1666 62.118 47.3958C61.706 46.6249 61.1203 46.0241 60.4351 45.6693C59.7498 45.3145 58.9958 45.2217 58.2684 45.4026C57.541 45.5834 56.8728 46.0299 56.3484 46.6854C55.8239 47.341 55.4668 48.1762 55.3221 49.0855C55.1774 49.9948 55.2516 50.9373 55.5355 51.7938C55.8193 52.6504 56.2999 53.3824 56.9166 53.8975C57.5333 54.4126 58.2583 54.6875 59 54.6875C59.4925 54.6875 59.9801 54.5663 60.4351 54.3308C60.8901 54.0952 61.3035 53.75 61.6517 53.3147C62 52.8794 62.2762 52.3626 62.4646 51.7939C62.6531 51.2251 62.75 50.6156 62.75 50ZM62 65H56V68.75H62V65ZM80 50V65C80.0005 65.4926 79.9232 65.9805 79.7726 66.4358C79.622 66.891 79.401 67.3046 79.1224 67.653C78.8437 68.0013 78.5128 68.2775 78.1486 68.4658C77.7844 68.654 77.3941 68.7506 77 68.75H74V46.25H77C77.3941 46.2494 77.7844 46.346 78.1486 46.5342C78.5128 46.7225 78.8437 46.9987 79.1224 47.347C79.401 47.6954 79.622 48.109 79.7726 48.5642C79.9232 49.0195 80.0005 49.5074 80 50Z" fill="white"/>
</g>
<defs>
<clipPath id="clip0_17_114">
<rect width="60" height="60" fill="white" transform="translate(20 20)"/>
</clipPath>
</defs>
</svg>
