<svg width="100" height="100" viewBox="0 0 100 100" fill="none" xmlns="http://www.w3.org/2000/svg">
<rect width="100" height="100" rx="22" fill="#0C6AD3"/>
<g clip-path="url(#clip0_0_1)">
<path d="M44.375 42.5C43.8777 42.5 43.4008 42.6975 43.0492 43.0492C42.6975 43.4008 42.5 43.8777 42.5 44.375V55.625C42.5 56.1223 42.6975 56.5992 43.0492 56.9508C43.4008 57.3025 43.8777 57.5 44.375 57.5H55.625C56.1223 57.5 56.5992 57.3025 56.9508 56.9508C57.3025 56.5992 57.5 56.1223 57.5 55.625V44.375C57.5 43.8777 57.3025 43.4008 56.9508 43.0492C56.5992 42.6975 56.1223 42.5 55.625 42.5H44.375Z" fill="white"/>
<path d="M40.625 21.875C40.625 21.3777 40.4275 20.9008 40.0758 20.5492C39.7242 20.1975 39.2473 20 38.75 20C38.2527 20 37.7758 20.1975 37.4242 20.5492C37.0725 20.9008 36.875 21.3777 36.875 21.875V27.5C34.3886 27.5 32.004 28.4877 30.2459 30.2459C28.4877 32.004 27.5 34.3886 27.5 36.875H21.875C21.3777 36.875 20.9008 37.0725 20.5492 37.4242C20.1975 37.7758 20 38.2527 20 38.75C20 39.2473 20.1975 39.7242 20.5492 40.0758C20.9008 40.4275 21.3777 40.625 21.875 40.625H27.5V44.375H21.875C21.3777 44.375 20.9008 44.5725 20.5492 44.9242C20.1975 45.2758 20 45.7527 20 46.25C20 46.7473 20.1975 47.2242 20.5492 47.5758C20.9008 47.9275 21.3777 48.125 21.875 48.125H27.5V51.875H21.875C21.3777 51.875 20.9008 52.0725 20.5492 52.4242C20.1975 52.7758 20 53.2527 20 53.75C20 54.2473 20.1975 54.7242 20.5492 55.0758C20.9008 55.4275 21.3777 55.625 21.875 55.625H27.5V59.375H21.875C21.3777 59.375 20.9008 59.5725 20.5492 59.9242C20.1975 60.2758 20 60.7527 20 61.25C20 61.7473 20.1975 62.2242 20.5492 62.5758C20.9008 62.9275 21.3777 63.125 21.875 63.125H27.5C27.5 65.6114 28.4877 67.996 30.2459 69.7541C32.004 71.5123 34.3886 72.5 36.875 72.5V78.125C36.875 78.6223 37.0725 79.0992 37.4242 79.4508C37.7758 79.8025 38.2527 80 38.75 80C39.2473 80 39.7242 79.8025 40.0758 79.4508C40.4275 79.0992 40.625 78.6223 40.625 78.125V72.5H44.375V78.125C44.375 78.6223 44.5725 79.0992 44.9242 79.4508C45.2758 79.8025 45.7527 80 46.25 80C46.7473 80 47.2242 79.8025 47.5758 79.4508C47.9275 79.0992 48.125 78.6223 48.125 78.125V72.5H51.875V78.125C51.875 78.6223 52.0725 79.0992 52.4242 79.4508C52.7758 79.8025 53.2527 80 53.75 80C54.2473 80 54.7242 79.8025 55.0758 79.4508C55.4275 79.0992 55.625 78.6223 55.625 78.125V72.5H59.375V78.125C59.375 78.6223 59.5725 79.0992 59.9242 79.4508C60.2758 79.8025 60.7527 80 61.25 80C61.7473 80 62.2242 79.8025 62.5758 79.4508C62.9275 79.0992 63.125 78.6223 63.125 78.125V72.5C65.6114 72.5 67.996 71.5123 69.7541 69.7541C71.5123 67.996 72.5 65.6114 72.5 63.125H78.125C78.6223 63.125 79.0992 62.9275 79.4508 62.5758C79.8025 62.2242 80 61.7473 80 61.25C80 60.7527 79.8025 60.2758 79.4508 59.9242C79.0992 59.5725 78.6223 59.375 78.125 59.375H72.5V55.625H78.125C78.6223 55.625 79.0992 55.4275 79.4508 55.0758C79.8025 54.7242 80 54.2473 80 53.75C80 53.2527 79.8025 52.7758 79.4508 52.4242C79.0992 52.0725 78.6223 51.875 78.125 51.875H72.5V48.125H78.125C78.6223 48.125 79.0992 47.9275 79.4508 47.5758C79.8025 47.2242 80 46.7473 80 46.25C80 45.7527 79.8025 45.2758 79.4508 44.9242C79.0992 44.5725 78.6223 44.375 78.125 44.375H72.5V40.625H78.125C78.6223 40.625 79.0992 40.4275 79.4508 40.0758C79.8025 39.7242 80 39.2473 80 38.75C80 38.2527 79.8025 37.7758 79.4508 37.4242C79.0992 37.0725 78.6223 36.875 78.125 36.875H72.5C72.5 34.3886 71.5123 32.004 69.7541 30.2459C67.996 28.4877 65.6114 27.5 63.125 27.5V21.875C63.125 21.3777 62.9275 20.9008 62.5758 20.5492C62.2242 20.1975 61.7473 20 61.25 20C60.7527 20 60.2758 20.1975 59.9242 20.5492C59.5725 20.9008 59.375 21.3777 59.375 21.875V27.5H55.625V21.875C55.625 21.3777 55.4275 20.9008 55.0758 20.5492C54.7242 20.1975 54.2473 20 53.75 20C53.2527 20 52.7758 20.1975 52.4242 20.5492C52.0725 20.9008 51.875 21.3777 51.875 21.875V27.5H48.125V21.875C48.125 21.3777 47.9275 20.9008 47.5758 20.5492C47.2242 20.1975 46.7473 20 46.25 20C45.7527 20 45.2758 20.1975 44.9242 20.5492C44.5725 20.9008 44.375 21.3777 44.375 21.875V27.5H40.625V21.875ZM44.375 38.75H55.625C57.1168 38.75 58.5476 39.3426 59.6025 40.3975C60.6574 41.4524 61.25 42.8832 61.25 44.375V55.625C61.25 57.1168 60.6574 58.5476 59.6025 59.6025C58.5476 60.6574 57.1168 61.25 55.625 61.25H44.375C42.8832 61.25 41.4524 60.6574 40.3975 59.6025C39.3426 58.5476 38.75 57.1168 38.75 55.625V44.375C38.75 42.8832 39.3426 41.4524 40.3975 40.3975C41.4524 39.3426 42.8832 38.75 44.375 38.75Z" fill="white"/>
</g>
<defs>
<clipPath id="clip0_0_1">
<rect width="60" height="60" fill="white" transform="translate(20 20)"/>
</clipPath>
</defs>
</svg>
