<svg width="400" height="400" viewBox="0 0 400 400" fill="none" xmlns="http://www.w3.org/2000/svg">
<path d="M200 399.593C310.232 399.593 399.592 310.232 399.592 200C399.592 89.7681 310.232 0.40741 200 0.40741C89.7679 0.40741 0.407227 89.7681 0.407227 200C0.407227 310.232 89.7679 399.593 200 399.593Z" fill="#FC3F1D"/>
<path d="M272.222 325.296H228.408V108.593H208.889C173.111 108.593 154.371 126.482 154.371 153.185C154.371 183.482 167.297 197.519 194.037 215.407L216.074 230.259L152.741 325.259H105.63L162.63 240.444C129.852 217.037 111.408 194.185 111.408 155.63C111.408 107.444 145 74.6667 208.593 74.6667H271.926V325.222H272.222V325.296Z" fill="white"/>
</svg>
