<svg width="256" height="256" viewBox="0 0 256 256" fill="none" xmlns="http://www.w3.org/2000/svg">
<g clip-path="url(#clip0_34_26)">
<path d="M122.747 256H133.407C191.273 256 220.211 256 238.182 238.029C256.154 220.058 256 191.13 256 133.407V122.593C256 64.8807 256 35.9425 238.182 17.9713C220.365 5.07813e-05 191.273 0 133.407 0H122.747C64.8704 0 35.9424 5.07813e-05 17.9712 17.9713C-1.17187e-05 35.9425 0 64.8602 0 122.593V133.407C0 191.13 -1.17187e-05 220.058 17.9712 238.029C35.9424 256 64.8704 256 122.747 256Z" fill="#0077FF"/>
<path d="M137.374 184.575C79.6507 184.575 44.6197 144.526 43.2578 77.9766H72.493C73.4044 126.862 95.6457 147.609 112.695 151.838V77.9766H140.722V120.155C157.168 118.332 174.371 99.1426 180.167 77.9766H207.722C203.309 104.017 184.58 123.207 171.33 131.122C184.58 137.522 205.9 154.275 214.122 184.575H183.822C177.422 164.32 161.735 148.633 140.722 146.503V184.575H137.374Z" fill="white"/>
</g>
<defs>
<clipPath id="clip0_34_26">
<rect width="256" height="256" fill="white"/>
</clipPath>
</defs>
</svg>
